<?xml version="1.0" encoding="utf-8"?>
<!-- Generator: Adobe Illustrator 21.1.0, SVG Export Plug-In . SVG Version: 6.00 Build 0)  -->
<svg version="1.1" id="Layer_1" xmlns="http://www.w3.org/2000/svg" xmlns:xlink="http://www.w3.org/1999/xlink" x="0px" y="0px"
	 viewBox="0 0 150 55" style="enable-background:new 0 0 150 55;" xml:space="preserve">
<style type="text/css">
	.st0{fill:#079347;}
</style>
<g id="XMLID_585_">
	<g id="XMLID_589_">
		<path id="XMLID_591_" class="st0" d="M30.2,14.3c-2.1-2.1-4.9-3.2-7.9-3.2c-2.9,0-5.6,1.2-7.6,3.2s-3.2,4.7-3.3,7.6
			c-0.1,3.2,1.3,6.2,3.6,8.4c1,0.9,1.6,2.3,1.6,3.7v1.5c0,0.9,0.5,1.7,1.2,2.2v3.7c0,1.3,1.1,2.4,2.4,2.4h4.3c1.3,0,2.4-1.1,2.4-2.4
			v-3.7c0.7-0.5,1.2-1.3,1.2-2.2V34c0-1.4,0.6-2.8,1.6-3.7c2.3-2.1,3.6-5.1,3.6-8.2C33.5,19.2,32.3,16.4,30.2,14.3L30.2,14.3z
			 M25.7,41.5c0,0.6-0.5,1.1-1.1,1.1h-4.3c-0.6,0-1.1-0.5-1.1-1.1v-3.3h6.5C25.7,38.2,25.7,41.5,25.7,41.5z M29,29.3
			c-1.3,1.2-2.1,2.9-2.1,4.7v1.5c0,0.7-0.6,1.2-1.2,1.2h-2.5v-2.6c0-0.4-0.3-0.7-0.7-0.7c-0.4,0-0.7,0.3-0.7,0.7v2.6h-2.5
			c-0.7,0-1.2-0.6-1.2-1.2V34c0-1.8-0.8-3.5-2.1-4.7c-2.1-1.9-3.2-4.6-3.2-7.4c0.1-5.2,4.4-9.4,9.5-9.5h0.1c2.6,0,5,1,6.8,2.8
			c1.9,1.8,2.9,4.3,2.9,6.9C32.1,24.9,31,27.5,29,29.3L29,29.3z"/>
	</g>
	<path id="XMLID_586_" class="st0" d="M23.3,22.9h-1.8c-0.8,0-1.5-0.7-1.5-1.5v-1c0-0.8,0.7-1.5,1.5-1.5h1.9c0.7,0,1.3,0.6,1.3,1.3
		c0,0.4,0.3,0.7,0.7,0.7c0.4,0,0.7-0.3,0.7-0.7c0-1.5-1.2-2.6-2.6-2.6h-0.4v-1.4c0-0.4-0.3-0.7-0.7-0.7c-0.4,0-0.7,0.3-0.7,0.7v1.4
		h-0.2c-1.6,0-2.8,1.3-2.8,2.8v1c0,1.6,1.3,2.8,2.8,2.8h1.8c0.8,0,1.5,0.7,1.5,1.5v1c0,0.8-0.7,1.5-1.5,1.5h-1.9
		c-0.7,0-1.3-0.6-1.3-1.3c0-0.4-0.3-0.7-0.7-0.7c-0.4,0-0.7,0.3-0.7,0.7c0,1.5,1.2,2.6,2.6,2.6h0.4V31c0,0.4,0.3,0.7,0.7,0.7
		c0.4,0,0.7-0.3,0.7-0.7v-1.4h0.2c1.6,0,2.8-1.3,2.8-2.8v-1C26.2,24.1,24.9,22.9,23.3,22.9L23.3,22.9z"/>
</g>
<g>
	<path d="M39,24.3l0.4-0.9c0.8,0.7,2.1,1.3,3.5,1.3c2,0,2.8-0.8,2.8-1.9c0-2.9-6.5-1.1-6.5-5c0-1.5,1.2-2.9,3.9-2.9
		c1.2,0,2.4,0.3,3.3,0.9L46,16.8C45.1,16.2,44,16,43.1,16c-1.9,0-2.8,0.9-2.8,1.9c0,2.9,6.5,1.1,6.5,5c0,1.5-1.2,2.9-3.9,2.9
		C41.3,25.7,39.7,25.1,39,24.3z"/>
	<path d="M60.1,15.1v10.5H59v-8.4l-4.1,7.1h-0.5l-4.1-7v8.4h-1.1V15.1h0.9l4.6,7.8l4.5-7.8H60.1z"/>
	<path d="M70.1,22.8h-5.8L63,25.6h-1.2l4.8-10.5h1.1l4.8,10.5h-1.2L70.1,22.8z M69.7,21.9l-2.5-5.6l-2.5,5.6H69.7z"/>
	<path d="M81.4,25.6L79,22.2c-0.3,0-0.5,0-0.8,0h-2.8v3.3h-1.1V15.1h3.9c2.7,0,4.3,1.4,4.3,3.6c0,1.6-0.9,2.8-2.4,3.3l2.6,3.6H81.4z
		 M81.4,18.7c0-1.7-1.1-2.6-3.2-2.6h-2.8v5.3h2.8C80.3,21.3,81.4,20.4,81.4,18.7z"/>
	<path d="M87,16.1h-3.7v-1h8.5v1h-3.7v9.5H87V16.1z"/>
	<path d="M93.6,15.1h1.1v9.5h5.9v1h-7V15.1z"/>
	<path d="M104.9,22v3.6h-1.1V22l-4.2-6.9h1.2l3.6,5.9l3.6-5.9h1.1L104.9,22z"/>
	<path d="M41.9,31v2.8h4.9v1.9h-4.9v3.8h-2.4V29.1h7.9V31H41.9z"/>
	<path d="M49.1,29.1h2.4v10.5h-2.4V29.1z"/>
	<path d="M63.6,29.1v10.5h-2l-5.2-6.4v6.4H54V29.1h2l5.2,6.4v-6.4H63.6z"/>
	<path d="M73,37.3h-4.9l-0.9,2.3h-2.5l4.7-10.5h2.4l4.7,10.5H74L73,37.3z M72.3,35.5l-1.7-4l-1.7,4H72.3z"/>
	<path d="M87.2,29.1v10.5h-2L80,33.2v6.4h-2.4V29.1h2l5.2,6.4v-6.4H87.2z"/>
	<path d="M89.1,34.3c0-3.2,2.4-5.4,5.7-5.4c1.8,0,3.3,0.7,4.3,1.9l-1.6,1.4c-0.7-0.8-1.6-1.2-2.6-1.2c-2,0-3.4,1.4-3.4,3.4
		c0,2,1.4,3.4,3.4,3.4c1.1,0,1.9-0.4,2.6-1.2l1.6,1.4c-1,1.2-2.5,1.9-4.3,1.9C91.5,39.8,89.1,37.5,89.1,34.3z"/>
	<path d="M100.7,29.1h2.4v10.5h-2.4V29.1z"/>
	<path d="M112.6,37.3h-4.9l-0.9,2.3h-2.5l4.7-10.5h2.4l4.7,10.5h-2.5L112.6,37.3z M111.8,35.5l-1.7-4l-1.7,4H111.8z"/>
	<path d="M117.1,29.1h2.4v8.5h5.3v2h-7.7V29.1z"/>
</g>
</svg>
