<svg xmlns="http://www.w3.org/2000/svg" viewBox="0 0 40 40" width="40" height="40"><path d="M13.8457 17.718C13.4591 17.718 13.1457 18.0314 13.1457 18.418C13.1457 18.8046 13.4591 19.118 13.8457 19.118L13.8457 17.718ZM26.8016 18.9129C27.0749 18.6396 27.0749 18.1964 26.8016 17.923L22.3468 13.4682C22.0734 13.1949 21.6302 13.1949 21.3568 13.4682C21.0835 13.7416 21.0835 14.1848 21.3568 14.4582L25.3166 18.418L21.3568 22.3778C21.0835 22.6511 21.0835 23.0943 21.3568 23.3677C21.6302 23.6411 22.0734 23.6411 22.3468 23.3677L26.8016 18.9129ZM13.8457 19.118L26.3066 19.118L26.3066 17.718L13.8457 17.718L13.8457 19.118Z"></path></svg>