<svg width="62" height="62" viewBox="0 0 62 62" fill="none" xmlns="http://www.w3.org/2000/svg">
<rect width="62" height="62" rx="13" fill="white"/>
<path d="M20.6333 41.4976C22.6302 41.4976 24.249 39.8787 24.249 37.8818C24.249 35.8849 22.6302 34.2661 20.6333 34.2661C18.6364 34.2661 17.0176 35.8849 17.0176 37.8818C17.0176 39.8787 18.6364 41.4976 20.6333 41.4976Z" stroke="#20254A" stroke-width="2" stroke-linejoin="round"/>
<path d="M41.1314 41.4976C43.1283 41.4976 44.7471 39.8787 44.7471 37.8818C44.7471 35.8849 43.1283 34.2661 41.1314 34.2661C39.1344 34.2661 37.5156 35.8849 37.5156 37.8818C37.5156 39.8787 39.1344 41.4976 41.1314 41.4976Z" stroke="#20254A" stroke-width="2" stroke-linejoin="round"/>
<path d="M17.0178 37.8828H14V21H34.4985V37.8828H24.2492" stroke="#20254A" stroke-width="2" stroke-linejoin="round"/>
<path d="M44.7473 37.8835H47.7651V29.8501L42.3415 23.4136H34.498V37.8835H37.5158" stroke="#20254A" stroke-width="2" stroke-linejoin="round"/>
<path d="M34.498 30.0459V37.8823H37.5158C37.5158 36.9234 37.8968 36.0037 38.5749 35.3256C39.2529 34.6475 40.1726 34.2666 41.1316 34.2666C42.0905 34.2666 43.0102 34.6475 43.6883 35.3256C44.3664 36.0037 44.7473 36.9234 44.7473 37.8823H47.7651V30.0459H34.498Z" fill="#20254A" stroke="#20254A" stroke-width="2" stroke-linejoin="round"/>
</svg>
