<svg width="62" height="62" viewBox="0 0 62 62" fill="none" xmlns="http://www.w3.org/2000/svg">
<rect width="62" height="62" rx="13" fill="white"/>
<path d="M37.1 30.5549L37.707 26.6206C37.7997 26.0341 37.6863 25.4335 37.3861 24.9211C37.0858 24.4088 36.6173 24.0163 36.0603 23.8104L32.3227 22.4391C31.966 22.3066 31.5843 22.255 31.2053 22.288C30.8262 22.3211 30.4592 22.4379 30.1308 22.6302L19.2216 29.043C18.6611 29.376 18.2481 29.9097 18.0665 30.5359C17.8849 31.1622 17.9482 31.834 18.2437 32.4152C18.2609 32.4581 18.2816 32.4994 18.3055 32.5389L21.4361 37.8501C21.7817 38.436 22.3452 38.8612 23.0034 39.0328C23.6616 39.2045 24.361 39.1087 24.9488 38.7663L35.8579 32.3759C36.082 32.2466 36.2848 32.0835 36.4593 31.8925C36.7965 31.5172 37.0189 31.0529 37.1 30.5549V30.5549Z" stroke="#20254A" stroke-width="2" stroke-linejoin="round"/>
<path d="M34.9084 35.7482L24.0274 42.161C23.7363 42.3322 23.4143 42.4443 23.0799 42.4909C22.7454 42.5374 22.405 42.5176 22.0782 42.4325C21.7515 42.3474 21.4446 42.1987 21.1754 41.995C20.9061 41.7912 20.6797 41.5363 20.509 41.2449L17.356 35.9336C17.012 35.3518 16.9123 34.6575 17.0787 34.0025C17.2451 33.3474 17.6641 32.7848 18.244 32.4378C18.244 32.4827 21.4364 37.8727 21.4364 37.8727C21.7821 38.4585 22.3456 38.8837 23.0038 39.0554C23.662 39.227 24.3614 39.1312 24.9491 38.7888L35.8583 32.3759C36.0823 32.2466 36.2852 32.0836 36.4597 31.8926L36.1393 33.9328C36.0812 34.3076 35.9407 34.6649 35.7279 34.9788C35.515 35.2927 35.2351 35.5555 34.9084 35.7482Z" fill="#20254A" stroke="#20254A" stroke-width="2" stroke-linejoin="round"/>
<path d="M34.6669 26.5195C33.7564 24.9627 35.0323 22.5347 37.5165 21.0565C40.0007 19.5783 42.7715 19.6683 43.6989 21.2195C44.6262 22.7707 43.3392 25.2212 40.8494 26.6881C39.8387 27.2989 38.6951 27.6557 37.5165 27.7279" stroke="#20254A" stroke-width="2" stroke-linecap="round" stroke-linejoin="round"/>
</svg>
