<svg width="20" height="11" viewBox="0 0 20 11" fill="none" xmlns="http://www.w3.org/2000/svg">
<path d="M1 4.96211C0.613401 4.96211 0.3 5.27551 0.3 5.66211C0.3 6.04871 0.613401 6.36211 1 6.36211L1 4.96211ZM19.495 6.15709C19.7683 5.88372 19.7683 5.4405 19.495 5.16714L15.0402 0.712363C14.7668 0.438996 14.3236 0.438996 14.0503 0.712363C13.7769 0.98573 13.7769 1.42895 14.0503 1.70231L18.0101 5.66211L14.0503 9.62191C13.7769 9.89528 13.7769 10.3385 14.0503 10.6119C14.3236 10.8852 14.7668 10.8852 15.0402 10.6119L19.495 6.15709ZM1 6.36211L19 6.36211L19 4.96211L1 4.96211L1 6.36211Z" fill="#20254A"/>
</svg>
