<svg width="115" height="20" viewBox="0 0 115 20" fill="none" xmlns="http://www.w3.org/2000/svg">
<path d="M9.54874 0.945683C9.72986 0.566122 10.2701 0.566122 10.4513 0.945683L12.7633 5.7909C12.8362 5.94365 12.9814 6.04916 13.1492 6.07128L18.4717 6.77289C18.8887 6.82785 19.0556 7.34169 18.7506 7.63123L14.857 11.3274C14.7342 11.4439 14.6788 11.6146 14.7096 11.781L15.6871 17.0599C15.7636 17.4734 15.3265 17.791 14.9569 17.5903L10.2385 15.0294C10.0898 14.9487 9.91025 14.9487 9.76149 15.0294L5.04308 17.5903C4.67345 17.791 4.23636 17.4734 4.31293 17.0599L5.29041 11.781C5.32123 11.6146 5.26576 11.4439 5.14301 11.3274L1.24939 7.63123C0.944371 7.34169 1.11133 6.82785 1.52828 6.77289L6.85081 6.07128C7.01861 6.04916 7.16383 5.94365 7.23672 5.7909L9.54874 0.945683Z" fill="#FEBE85"/>
<path d="M33.5487 0.945683C33.7299 0.566122 34.2701 0.566122 34.4513 0.945683L36.7633 5.7909C36.8362 5.94365 36.9814 6.04916 37.1492 6.07128L42.4717 6.77289C42.8887 6.82785 43.0556 7.34169 42.7506 7.63123L38.857 11.3274C38.7342 11.4439 38.6788 11.6146 38.7096 11.781L39.6871 17.0599C39.7636 17.4734 39.3265 17.791 38.9569 17.5903L34.2385 15.0294C34.0898 14.9487 33.9102 14.9487 33.7615 15.0294L29.0431 17.5903C28.6735 17.791 28.2364 17.4734 28.3129 17.0599L29.2904 11.781C29.3212 11.6146 29.2658 11.4439 29.143 11.3274L25.2494 7.63123C24.9444 7.34169 25.1113 6.82785 25.5283 6.77289L30.8508 6.07128C31.0186 6.04916 31.1638 5.94365 31.2367 5.7909L33.5487 0.945683Z" fill="#FEBE85"/>
<path d="M57.5487 0.945683C57.7299 0.566122 58.2701 0.566122 58.4513 0.945683L60.7633 5.7909C60.8362 5.94365 60.9814 6.04916 61.1492 6.07128L66.4717 6.77289C66.8887 6.82785 67.0556 7.34169 66.7506 7.63123L62.857 11.3274C62.7342 11.4439 62.6788 11.6146 62.7096 11.781L63.6871 17.0599C63.7636 17.4734 63.3265 17.791 62.9569 17.5903L58.2385 15.0294C58.0898 14.9487 57.9102 14.9487 57.7615 15.0294L53.0431 17.5903C52.6735 17.791 52.2364 17.4734 52.3129 17.0599L53.2904 11.781C53.3212 11.6146 53.2658 11.4439 53.143 11.3274L49.2494 7.63123C48.9444 7.34169 49.1113 6.82785 49.5283 6.77289L54.8508 6.07128C55.0186 6.04916 55.1638 5.94365 55.2367 5.7909L57.5487 0.945683Z" fill="#FEBE85"/>
<path d="M80.5487 0.945683C80.7299 0.566122 81.2701 0.566122 81.4513 0.945683L83.7633 5.7909C83.8362 5.94365 83.9814 6.04916 84.1492 6.07128L89.4717 6.77289C89.8887 6.82785 90.0556 7.34169 89.7506 7.63123L85.857 11.3274C85.7342 11.4439 85.6788 11.6146 85.7096 11.781L86.6871 17.0599C86.7636 17.4734 86.3265 17.791 85.9569 17.5903L81.2385 15.0294C81.0898 14.9487 80.9102 14.9487 80.7615 15.0294L76.0431 17.5903C75.6735 17.791 75.2364 17.4734 75.3129 17.0599L76.2904 11.781C76.3212 11.6146 76.2658 11.4439 76.143 11.3274L72.2494 7.63123C71.9444 7.34169 72.1113 6.82785 72.5283 6.77289L77.8508 6.07128C78.0186 6.04916 78.1638 5.94365 78.2367 5.7909L80.5487 0.945683Z" fill="#FEBE85"/>
<path d="M104.549 0.945683C104.73 0.566122 105.27 0.566122 105.451 0.945683L107.763 5.7909C107.836 5.94365 107.981 6.04916 108.149 6.07128L113.472 6.77289C113.889 6.82785 114.056 7.34169 113.751 7.63123L109.857 11.3274C109.734 11.4439 109.679 11.6146 109.71 11.781L110.687 17.0599C110.764 17.4734 110.327 17.791 109.957 17.5903L105.239 15.0294C105.09 14.9487 104.91 14.9487 104.761 15.0294L100.043 17.5903C99.6735 17.791 99.2364 17.4734 99.3129 17.0599L100.29 11.781C100.321 11.6146 100.266 11.4439 100.143 11.3274L96.2494 7.63123C95.9444 7.34169 96.1113 6.82785 96.5283 6.77289L101.851 6.07128C102.019 6.04916 102.164 5.94365 102.237 5.7909L104.549 0.945683Z" fill="#FEBE85"/>
</svg>
