<svg width="398" height="48" viewBox="0 0 398 48" fill="none" xmlns="http://www.w3.org/2000/svg">
<path d="M17.0009 43.0008C3.00055 43.0008 3.00055 35.0577 3.00055 24.5005C3.00055 15.4123 -2.38828 11.2058 3.00055 4.5003C14.9294 -5.50129 68.8326 4.50046 86.5011 4.50009L88.1553 4.47022C101.881 4.0654 161.509 -0.258405 208.501 3.61102C246.016 3.05158 268.961 4.02938 306.001 4.5003C360.297 5.19062 397.501 -6.3335 397.501 11.7239C397.501 28.2785 398.254 24.8397 395.001 38.7308C391.747 52.6218 283.856 45.779 221.501 43.0008C159.145 40.2226 26.2822 43.0008 17.0009 43.0008Z" fill="#C4E6F9"/>
</svg>
